<svg xmlns="http://www.w3.org/2000/svg" xmlns:xlink="http://www.w3.org/1999/xlink" width="700" zoomAndPan="magnify" viewBox="0 0 525 525.000007" height="700" preserveAspectRatio="xMidYMid meet" version="1.0"><defs><clipPath id="bba0de31f1"><path d="M 0.5 0 L 524.5 0 L 524.5 524 L 0.5 524 Z M 0.5 0 " clip-rule="nonzero"/></clipPath><clipPath id="a879b0997d"><path d="M 91 23.699219 L 369.246094 23.699219 L 369.246094 323 L 91 323 Z M 91 23.699219 " clip-rule="nonzero"/></clipPath><clipPath id="401eb10975"><path d="M 155.75 201 L 434 201 L 434 500.296875 L 155.75 500.296875 Z M 155.75 201 " clip-rule="nonzero"/></clipPath></defs><g clip-path="url(#bba0de31f1)"><path fill="#ffffff" d="M 0.5 0 L 524.5 0 L 524.5 524 L 0.5 524 Z M 0.5 0 " fill-opacity="1" fill-rule="nonzero"/><path fill="#ffffff" d="M 0.5 0 L 524.5 0 L 524.5 524 L 0.5 524 Z M 0.5 0 " fill-opacity="1" fill-rule="nonzero"/></g><g clip-path="url(#a879b0997d)"><path fill="#000000" d="M 132.015625 23.152344 C 130.675781 23.15625 129.339844 23.222656 128.007812 23.355469 C 126.675781 23.488281 125.351562 23.683594 124.039062 23.945312 C 122.726562 24.207031 121.429688 24.535156 120.148438 24.925781 C 118.867188 25.3125 117.609375 25.765625 116.371094 26.277344 C 115.132812 26.789062 113.925781 27.363281 112.742188 27.996094 C 111.5625 28.625 110.414062 29.3125 109.300781 30.058594 C 108.1875 30.800781 107.113281 31.597656 106.082031 32.449219 C 105.046875 33.296875 104.054688 34.195312 103.105469 35.140625 C 102.160156 36.089844 101.261719 37.078125 100.410156 38.113281 C 99.5625 39.148438 98.765625 40.222656 98.019531 41.335938 C 97.277344 42.449219 96.589844 43.59375 95.957031 44.773438 C 95.324219 45.957031 94.753906 47.164062 94.238281 48.402344 C 93.726562 49.636719 93.273438 50.894531 92.886719 52.175781 C 92.496094 53.457031 92.167969 54.753906 91.90625 56.066406 C 91.644531 57.378906 91.449219 58.703125 91.316406 60.035156 C 91.183594 61.367188 91.117188 62.703125 91.113281 64.039062 L 91.113281 314.8125 C 91.113281 315.59375 91.222656 316.359375 91.445312 317.113281 C 91.664062 317.863281 91.984375 318.566406 92.40625 319.226562 C 92.828125 319.882812 93.335938 320.46875 93.925781 320.984375 C 94.515625 321.496094 95.167969 321.917969 95.878906 322.242188 C 96.589844 322.570312 97.332031 322.789062 98.105469 322.902344 C 98.878906 323.015625 99.652344 323.019531 100.429688 322.910156 C 101.203125 322.804688 101.945312 322.589844 102.660156 322.265625 C 103.375 321.945312 104.027344 321.527344 104.621094 321.019531 L 168.710938 266.101562 C 170.304688 264.734375 172.007812 263.523438 173.820312 262.460938 C 175.628906 261.398438 177.519531 260.503906 179.488281 259.773438 C 181.457031 259.046875 183.472656 258.5 185.539062 258.128906 C 187.605469 257.757812 189.6875 257.574219 191.789062 257.570312 L 328.347656 257.570312 C 329.6875 257.570312 331.023438 257.503906 332.355469 257.371094 C 333.6875 257.238281 335.011719 257.039062 336.324219 256.777344 C 337.636719 256.515625 338.933594 256.1875 340.214844 255.800781 C 341.496094 255.410156 342.753906 254.960938 343.992188 254.445312 C 345.230469 253.933594 346.4375 253.359375 347.617188 252.730469 C 348.800781 252.097656 349.945312 251.410156 351.058594 250.664062 C 352.171875 249.921875 353.246094 249.125 354.28125 248.277344 C 355.316406 247.425781 356.308594 246.527344 357.253906 245.582031 C 358.203125 244.636719 359.101562 243.644531 359.949219 242.609375 C 360.800781 241.574219 361.597656 240.5 362.339844 239.386719 C 363.085938 238.277344 363.773438 237.128906 364.40625 235.949219 C 365.039062 234.769531 365.609375 233.558594 366.121094 232.324219 C 366.636719 231.085938 367.085938 229.828125 367.476562 228.546875 C 367.867188 227.265625 368.191406 225.96875 368.457031 224.65625 C 368.71875 223.34375 368.914062 222.023438 369.046875 220.691406 C 369.179688 219.359375 369.246094 218.023438 369.25 216.683594 L 369.25 64.039062 C 369.246094 62.703125 369.179688 61.367188 369.046875 60.035156 C 368.914062 58.703125 368.71875 57.378906 368.457031 56.066406 C 368.195312 54.753906 367.867188 53.457031 367.476562 52.175781 C 367.089844 50.894531 366.636719 49.636719 366.125 48.402344 C 365.609375 47.164062 365.039062 45.957031 364.40625 44.773438 C 363.773438 43.59375 363.085938 42.449219 362.34375 41.335938 C 361.597656 40.222656 360.800781 39.148438 359.949219 38.113281 C 359.101562 37.078125 358.203125 36.089844 357.257812 35.140625 C 356.308594 34.195312 355.316406 33.296875 354.28125 32.449219 C 353.246094 31.597656 352.171875 30.800781 351.058594 30.058594 C 349.945312 29.3125 348.800781 28.625 347.621094 27.996094 C 346.4375 27.363281 345.230469 26.789062 343.992188 26.277344 C 342.753906 25.765625 341.496094 25.3125 340.214844 24.925781 C 338.933594 24.535156 337.636719 24.207031 336.324219 23.945312 C 335.011719 23.683594 333.6875 23.488281 332.355469 23.355469 C 331.023438 23.222656 329.6875 23.15625 328.347656 23.152344 Z M 132.015625 23.152344 " fill-opacity="1" fill-rule="nonzero"/></g><g clip-path="url(#401eb10975)"><path fill="#d9d9d9" d="M 392.996094 500.839844 C 394.335938 500.839844 395.671875 500.773438 397.003906 500.640625 C 398.335938 500.507812 399.65625 500.308594 400.96875 500.046875 C 402.28125 499.785156 403.578125 499.460938 404.859375 499.070312 C 406.140625 498.679688 407.398438 498.230469 408.636719 497.714844 C 409.871094 497.203125 411.082031 496.632812 412.261719 496 C 413.441406 495.367188 414.589844 494.679688 415.699219 493.9375 C 416.8125 493.191406 417.886719 492.394531 418.921875 491.546875 C 419.957031 490.695312 420.949219 489.800781 421.894531 488.851562 C 422.839844 487.90625 423.738281 486.914062 424.589844 485.878906 C 425.4375 484.847656 426.234375 483.773438 426.976562 482.660156 C 427.722656 481.546875 428.410156 480.398438 429.042969 479.21875 C 429.671875 478.039062 430.246094 476.832031 430.757812 475.59375 C 431.273438 474.355469 431.722656 473.097656 432.113281 471.816406 C 432.5 470.539062 432.828125 469.242188 433.089844 467.925781 C 433.351562 466.613281 433.550781 465.292969 433.683594 463.960938 C 433.8125 462.628906 433.882812 461.292969 433.882812 459.953125 L 433.882812 209.183594 C 433.882812 208.398438 433.773438 207.632812 433.554688 206.882812 C 433.332031 206.132812 433.011719 205.429688 432.589844 204.769531 C 432.167969 204.109375 431.664062 203.523438 431.074219 203.011719 C 430.480469 202.5 429.832031 202.078125 429.121094 201.75 C 428.410156 201.425781 427.667969 201.203125 426.894531 201.089844 C 426.121094 200.976562 425.347656 200.972656 424.570312 201.082031 C 423.796875 201.191406 423.054688 201.40625 422.339844 201.726562 C 421.628906 202.050781 420.976562 202.464844 420.382812 202.976562 L 356.316406 257.894531 C 354.71875 259.257812 353.019531 260.472656 351.207031 261.535156 C 349.398438 262.597656 347.511719 263.492188 345.542969 264.21875 C 343.574219 264.945312 341.558594 265.496094 339.492188 265.867188 C 337.425781 266.234375 335.34375 266.421875 333.246094 266.421875 L 196.738281 266.421875 C 195.402344 266.425781 194.066406 266.492188 192.734375 266.625 C 191.402344 266.757812 190.078125 266.953125 188.765625 267.21875 C 187.453125 267.480469 186.15625 267.804688 184.875 268.195312 C 183.59375 268.585938 182.335938 269.035156 181.101562 269.546875 C 179.863281 270.0625 178.65625 270.632812 177.476562 271.265625 C 176.292969 271.898438 175.148438 272.585938 174.035156 273.328125 C 172.921875 274.074219 171.847656 274.871094 170.8125 275.71875 C 169.78125 276.566406 168.789062 277.464844 167.84375 278.414062 C 166.894531 279.359375 165.996094 280.351562 165.148438 281.382812 C 164.296875 282.417969 163.503906 283.492188 162.757812 284.605469 C 162.015625 285.71875 161.324219 286.867188 160.695312 288.046875 C 160.0625 289.226562 159.492188 290.433594 158.976562 291.671875 C 158.464844 292.90625 158.011719 294.164062 157.625 295.445312 C 157.234375 296.726562 156.910156 298.023438 156.644531 299.335938 C 156.382812 300.648438 156.1875 301.972656 156.054688 303.304688 C 155.921875 304.636719 155.855469 305.972656 155.851562 307.308594 L 155.851562 459.953125 C 155.855469 461.292969 155.921875 462.628906 156.054688 463.960938 C 156.1875 465.292969 156.382812 466.613281 156.644531 467.925781 C 156.90625 469.242188 157.234375 470.539062 157.625 471.816406 C 158.011719 473.097656 158.464844 474.355469 158.976562 475.59375 C 159.488281 476.832031 160.0625 478.039062 160.695312 479.21875 C 161.324219 480.398438 162.011719 481.546875 162.757812 482.660156 C 163.5 483.773438 164.296875 484.847656 165.148438 485.878906 C 165.996094 486.914062 166.894531 487.90625 167.839844 488.851562 C 168.789062 489.800781 169.777344 490.695312 170.8125 491.546875 C 171.847656 492.394531 172.921875 493.191406 174.035156 493.9375 C 175.148438 494.679688 176.292969 495.367188 177.472656 496 C 178.65625 496.632812 179.863281 497.203125 181.097656 497.714844 C 182.335938 498.230469 183.59375 498.679688 184.875 499.070312 C 186.15625 499.460938 187.453125 499.785156 188.765625 500.046875 C 190.078125 500.308594 191.402344 500.507812 192.734375 500.640625 C 194.066406 500.773438 195.402344 500.839844 196.738281 500.839844 Z M 392.996094 500.839844 " fill-opacity="1" fill-rule="nonzero"/></g></svg>