<svg xmlns="http://www.w3.org/2000/svg" xmlns:xlink="http://www.w3.org/1999/xlink" width="1300" zoomAndPan="magnify" viewBox="0 0 974.88 974.999993" height="1300" preserveAspectRatio="xMidYMid meet" version="1.0"><defs><clipPath id="f66b779a6c"><path d="M 0 0.0585938 L 974.761719 0.0585938 L 974.761719 974.9375 L 0 974.9375 Z M 0 0.0585938 " clip-rule="nonzero"/></clipPath><clipPath id="6d8bb2fa20"><path d="M 168 44.148438 L 685.5 44.148438 L 685.5 601 L 168 601 Z M 168 44.148438 " clip-rule="nonzero"/></clipPath><clipPath id="01993ffe95"><path d="M 289.375 374 L 807 374 L 807 930.839844 L 289.375 930.839844 Z M 289.375 374 " clip-rule="nonzero"/></clipPath></defs><g clip-path="url(#f66b779a6c)"><path fill="#ffffff" d="M 0 0.0585938 L 974.878906 0.0585938 L 974.878906 974.941406 L 0 974.941406 Z M 0 0.0585938 " fill-opacity="1" fill-rule="nonzero"/><path fill="#ffffff" d="M 0 0.0585938 L 974.878906 0.0585938 L 974.878906 974.941406 L 0 974.941406 Z M 0 0.0585938 " fill-opacity="1" fill-rule="nonzero"/></g><g clip-path="url(#6d8bb2fa20)"><path fill="#0f0efb" d="M 244.648438 43.136719 C 243.40625 43.136719 242.160156 43.167969 240.917969 43.230469 C 239.675781 43.292969 238.433594 43.386719 237.195312 43.511719 C 235.957031 43.632812 234.722656 43.785156 233.492188 43.96875 C 232.261719 44.152344 231.035156 44.367188 229.816406 44.613281 C 228.59375 44.855469 227.382812 45.128906 226.175781 45.433594 C 224.96875 45.734375 223.769531 46.066406 222.578125 46.429688 C 221.386719 46.792969 220.207031 47.183594 219.035156 47.601562 C 217.863281 48.023438 216.703125 48.472656 215.554688 48.949219 C 214.402344 49.425781 213.265625 49.929688 212.140625 50.460938 C 211.015625 50.996094 209.90625 51.554688 208.808594 52.140625 C 207.710938 52.730469 206.628906 53.34375 205.5625 53.984375 C 204.492188 54.625 203.441406 55.289062 202.410156 55.980469 C 201.375 56.671875 200.355469 57.390625 199.355469 58.132812 C 198.359375 58.871094 197.378906 59.636719 196.414062 60.429688 C 195.453125 61.21875 194.511719 62.03125 193.589844 62.867188 C 192.667969 63.703125 191.765625 64.558594 190.886719 65.441406 C 190.007812 66.320312 189.148438 67.222656 188.3125 68.144531 C 187.476562 69.066406 186.664062 70.007812 185.875 70.96875 C 185.085938 71.929688 184.320312 72.914062 183.578125 73.910156 C 182.835938 74.910156 182.117188 75.929688 181.425781 76.960938 C 180.734375 77.996094 180.070312 79.046875 179.429688 80.117188 C 178.789062 81.183594 178.175781 82.265625 177.589844 83.363281 C 177 84.460938 176.441406 85.570312 175.910156 86.695312 C 175.375 87.820312 174.871094 88.957031 174.394531 90.105469 C 173.917969 91.257812 173.46875 92.417969 173.050781 93.589844 C 172.628906 94.761719 172.238281 95.941406 171.875 97.132812 C 171.511719 98.324219 171.179688 99.523438 170.878906 100.730469 C 170.574219 101.9375 170.300781 103.148438 170.058594 104.371094 C 169.8125 105.589844 169.597656 106.816406 169.414062 108.046875 C 169.230469 109.277344 169.078125 110.511719 168.957031 111.75 C 168.832031 112.988281 168.738281 114.230469 168.675781 115.472656 C 168.613281 116.714844 168.582031 117.960938 168.582031 119.203125 L 168.582031 585.757812 C 168.582031 587.214844 168.785156 588.640625 169.195312 590.035156 C 169.605469 591.433594 170.199219 592.742188 170.984375 593.96875 C 171.769531 595.191406 172.710938 596.28125 173.808594 597.238281 C 174.910156 598.191406 176.117188 598.972656 177.441406 599.582031 C 178.761719 600.191406 180.144531 600.597656 181.582031 600.8125 C 183.023438 601.023438 184.460938 601.027344 185.902344 600.824219 C 187.34375 600.625 188.726562 600.222656 190.054688 599.625 C 191.378906 599.027344 192.597656 598.253906 193.699219 597.308594 L 312.894531 495.128906 C 315.859375 492.589844 319.027344 490.335938 322.394531 488.359375 C 325.761719 486.382812 329.273438 484.714844 332.9375 483.363281 C 336.597656 482.007812 340.351562 480.988281 344.191406 480.300781 C 348.035156 479.609375 351.90625 479.265625 355.8125 479.261719 L 609.78125 479.261719 C 611.023438 479.261719 612.265625 479.230469 613.511719 479.167969 C 614.753906 479.105469 615.996094 479.011719 617.234375 478.886719 C 618.472656 478.765625 619.707031 478.613281 620.9375 478.425781 C 622.167969 478.242188 623.394531 478.03125 624.613281 477.785156 C 625.832031 477.542969 627.046875 477.269531 628.253906 476.964844 C 629.460938 476.660156 630.660156 476.328125 631.851562 475.96875 C 633.042969 475.605469 634.222656 475.214844 635.394531 474.792969 C 636.566406 474.375 637.726562 473.925781 638.875 473.449219 C 640.023438 472.972656 641.164062 472.464844 642.285156 471.933594 C 643.410156 471.402344 644.523438 470.839844 645.621094 470.253906 C 646.71875 469.667969 647.800781 469.054688 648.867188 468.414062 C 649.933594 467.773438 650.984375 467.105469 652.019531 466.414062 C 653.054688 465.722656 654.070312 465.007812 655.070312 464.265625 C 656.070312 463.523438 657.050781 462.757812 658.011719 461.96875 C 658.976562 461.179688 659.917969 460.367188 660.839844 459.53125 C 661.761719 458.695312 662.660156 457.835938 663.542969 456.957031 C 664.421875 456.078125 665.28125 455.175781 666.117188 454.253906 C 666.953125 453.332031 667.765625 452.390625 668.554688 451.425781 C 669.34375 450.464844 670.109375 449.484375 670.851562 448.484375 C 671.59375 447.484375 672.308594 446.46875 673 445.433594 C 673.691406 444.398438 674.359375 443.347656 675 442.28125 C 675.640625 441.214844 676.253906 440.132812 676.839844 439.035156 C 677.425781 437.9375 677.988281 436.828125 678.519531 435.703125 C 679.050781 434.578125 679.558594 433.441406 680.035156 432.289062 C 680.511719 431.140625 680.960938 429.980469 681.378906 428.808594 C 681.800781 427.636719 682.191406 426.457031 682.550781 425.265625 C 682.914062 424.074219 683.246094 422.875 683.550781 421.667969 C 683.855469 420.460938 684.128906 419.25 684.371094 418.027344 C 684.617188 416.808594 684.828125 415.582031 685.011719 414.351562 C 685.195312 413.121094 685.351562 411.886719 685.472656 410.648438 C 685.597656 409.410156 685.691406 408.167969 685.753906 406.925781 C 685.816406 405.683594 685.847656 404.4375 685.847656 403.195312 L 685.847656 119.203125 C 685.847656 117.960938 685.816406 116.714844 685.753906 115.472656 C 685.691406 114.230469 685.597656 112.988281 685.472656 111.75 C 685.351562 110.511719 685.199219 109.277344 685.011719 108.046875 C 684.828125 106.816406 684.617188 105.589844 684.371094 104.371094 C 684.128906 103.148438 683.855469 101.9375 683.550781 100.730469 C 683.25 99.523438 682.914062 98.324219 682.554688 97.132812 C 682.191406 95.941406 681.800781 94.761719 681.378906 93.589844 C 680.960938 92.417969 680.511719 91.257812 680.035156 90.105469 C 679.558594 88.957031 679.054688 87.820312 678.519531 86.695312 C 677.988281 85.570312 677.429688 84.460938 676.839844 83.363281 C 676.253906 82.265625 675.640625 81.183594 675 80.117188 C 674.359375 79.046875 673.695312 77.996094 673.003906 76.960938 C 672.3125 75.929688 671.59375 74.910156 670.851562 73.910156 C 670.109375 72.914062 669.34375 71.929688 668.554688 70.96875 C 667.765625 70.007812 666.953125 69.066406 666.117188 68.144531 C 665.28125 67.222656 664.421875 66.320312 663.542969 65.441406 C 662.664062 64.558594 661.761719 63.703125 660.839844 62.867188 C 659.917969 62.03125 658.976562 61.21875 658.015625 60.429688 C 657.050781 59.636719 656.070312 58.871094 655.070312 58.132812 C 654.074219 57.390625 653.054688 56.671875 652.019531 55.980469 C 650.988281 55.289062 649.933594 54.625 648.867188 53.984375 C 647.800781 53.34375 646.71875 52.730469 645.621094 52.144531 C 644.523438 51.554688 643.414062 50.996094 642.289062 50.464844 C 641.164062 49.929688 640.027344 49.425781 638.875 48.949219 C 637.726562 48.472656 636.566406 48.023438 635.394531 47.601562 C 634.222656 47.183594 633.042969 46.792969 631.851562 46.429688 C 630.660156 46.066406 629.460938 45.734375 628.253906 45.433594 C 627.046875 45.128906 625.835938 44.855469 624.613281 44.613281 C 623.394531 44.367188 622.167969 44.152344 620.9375 43.96875 C 619.707031 43.785156 618.472656 43.632812 617.234375 43.511719 C 615.996094 43.386719 614.753906 43.292969 613.511719 43.230469 C 612.265625 43.167969 611.023438 43.136719 609.78125 43.136719 Z M 244.648438 43.136719 " fill-opacity="1" fill-rule="nonzero"/></g><g clip-path="url(#01993ffe95)"><path fill="#80b4f6" d="M 730.222656 931.855469 C 731.46875 931.855469 732.710938 931.820312 733.953125 931.757812 C 735.199219 931.699219 736.4375 931.605469 737.675781 931.480469 C 738.914062 931.359375 740.148438 931.203125 741.378906 931.019531 C 742.613281 930.835938 743.835938 930.625 745.058594 930.378906 C 746.277344 930.136719 747.492188 929.863281 748.699219 929.558594 C 749.90625 929.257812 751.105469 928.921875 752.296875 928.5625 C 753.484375 928.199219 754.667969 927.808594 755.839844 927.386719 C 757.011719 926.96875 758.171875 926.519531 759.320312 926.042969 C 760.46875 925.566406 761.605469 925.0625 762.730469 924.527344 C 763.855469 923.996094 764.96875 923.4375 766.066406 922.847656 C 767.164062 922.261719 768.246094 921.648438 769.3125 921.007812 C 770.378906 920.367188 771.429688 919.703125 772.464844 919.011719 C 773.5 918.316406 774.515625 917.601562 775.515625 916.859375 C 776.515625 916.117188 777.496094 915.351562 778.457031 914.5625 C 779.421875 913.773438 780.363281 912.960938 781.285156 912.125 C 782.207031 911.289062 783.105469 910.429688 783.988281 909.550781 C 784.867188 908.671875 785.726562 907.769531 786.5625 906.847656 C 787.398438 905.925781 788.210938 904.984375 789 904.023438 C 789.789062 903.058594 790.554688 902.078125 791.296875 901.078125 C 792.039062 900.082031 792.753906 899.0625 793.445312 898.027344 C 794.136719 896.992188 794.804688 895.941406 795.445312 894.875 C 796.085938 893.808594 796.699219 892.726562 797.285156 891.628906 C 797.871094 890.53125 798.433594 889.421875 798.964844 888.296875 C 799.496094 887.171875 800.003906 886.035156 800.480469 884.882812 C 800.957031 883.734375 801.40625 882.574219 801.824219 881.402344 C 802.246094 880.230469 802.636719 879.050781 802.996094 877.859375 C 803.359375 876.667969 803.691406 875.46875 803.996094 874.261719 C 804.300781 873.054688 804.574219 871.839844 804.816406 870.621094 C 805.058594 869.402344 805.273438 868.175781 805.457031 866.945312 C 805.640625 865.714844 805.792969 864.476562 805.917969 863.238281 C 806.042969 862 806.132812 860.761719 806.195312 859.519531 C 806.257812 858.273438 806.289062 857.03125 806.292969 855.785156 L 806.292969 389.234375 C 806.292969 387.777344 806.085938 386.351562 805.679688 384.957031 C 805.269531 383.558594 804.671875 382.25 803.886719 381.023438 C 803.101562 379.796875 802.160156 378.707031 801.0625 377.753906 C 799.964844 376.796875 798.753906 376.015625 797.433594 375.410156 C 796.109375 374.800781 794.730469 374.390625 793.289062 374.179688 C 791.851562 373.96875 790.410156 373.964844 788.96875 374.164062 C 787.527344 374.367188 786.144531 374.765625 784.820312 375.367188 C 783.492188 375.964844 782.277344 376.738281 781.171875 377.683594 L 661.976562 479.863281 C 659.011719 482.398438 655.84375 484.65625 652.480469 486.632812 C 649.113281 488.609375 645.597656 490.273438 641.9375 491.628906 C 638.277344 492.980469 634.523438 494.003906 630.679688 494.691406 C 626.839844 495.378906 622.964844 495.726562 619.0625 495.730469 L 365.09375 495.730469 C 363.847656 495.730469 362.605469 495.761719 361.363281 495.824219 C 360.121094 495.886719 358.878906 495.980469 357.640625 496.101562 C 356.402344 496.226562 355.167969 496.378906 353.9375 496.5625 C 352.707031 496.746094 351.480469 496.960938 350.261719 497.207031 C 349.039062 497.449219 347.824219 497.722656 346.617188 498.027344 C 345.410156 498.328125 344.214844 498.660156 343.023438 499.023438 C 341.832031 499.386719 340.652344 499.777344 339.480469 500.199219 C 338.308594 500.617188 337.148438 501.066406 335.996094 501.542969 C 334.847656 502.019531 333.710938 502.523438 332.585938 503.058594 C 331.460938 503.589844 330.351562 504.148438 329.253906 504.738281 C 328.15625 505.324219 327.074219 505.9375 326.007812 506.578125 C 324.9375 507.21875 323.886719 507.882812 322.855469 508.574219 C 321.820312 509.269531 320.800781 509.984375 319.800781 510.726562 C 318.804688 511.46875 317.824219 512.234375 316.859375 513.023438 C 315.898438 513.8125 314.957031 514.625 314.035156 515.460938 C 313.113281 516.296875 312.210938 517.15625 311.332031 518.035156 C 310.453125 518.914062 309.59375 519.816406 308.757812 520.738281 C 307.921875 521.660156 307.109375 522.601562 306.320312 523.5625 C 305.53125 524.527344 304.765625 525.507812 304.023438 526.507812 C 303.28125 527.503906 302.5625 528.523438 301.871094 529.558594 C 301.179688 530.589844 300.515625 531.640625 299.875 532.710938 C 299.234375 533.777344 298.621094 534.859375 298.035156 535.957031 C 297.445312 537.054688 296.886719 538.164062 296.355469 539.289062 C 295.820312 540.414062 295.316406 541.550781 294.839844 542.699219 C 294.363281 543.851562 293.914062 545.011719 293.492188 546.183594 C 293.074219 547.355469 292.683594 548.535156 292.320312 549.726562 C 291.957031 550.917969 291.625 552.113281 291.324219 553.320312 C 291.019531 554.527344 290.746094 555.742188 290.5 556.964844 C 290.257812 558.183594 290.042969 559.410156 289.859375 560.640625 C 289.675781 561.871094 289.523438 563.105469 289.398438 564.34375 C 289.277344 565.582031 289.183594 566.824219 289.121094 568.066406 C 289.058594 569.308594 289.027344 570.554688 289.027344 571.796875 L 289.027344 855.785156 C 289.027344 857.03125 289.058594 858.273438 289.121094 859.519531 C 289.183594 860.761719 289.277344 862 289.398438 863.238281 C 289.523438 864.476562 289.675781 865.714844 289.859375 866.945312 C 290.042969 868.175781 290.257812 869.402344 290.5 870.621094 C 290.746094 871.839844 291.019531 873.054688 291.320312 874.261719 C 291.625 875.46875 291.957031 876.667969 292.320312 877.859375 C 292.683594 879.050781 293.074219 880.230469 293.492188 881.402344 C 293.914062 882.574219 294.359375 883.734375 294.839844 884.882812 C 295.316406 886.035156 295.820312 887.171875 296.351562 888.296875 C 296.886719 889.421875 297.445312 890.53125 298.03125 891.628906 C 298.621094 892.726562 299.234375 893.808594 299.871094 894.875 C 300.511719 895.941406 301.179688 896.992188 301.871094 898.027344 C 302.5625 899.0625 303.28125 900.082031 304.019531 901.078125 C 304.761719 902.078125 305.527344 903.058594 306.316406 904.023438 C 307.105469 904.984375 307.921875 905.925781 308.757812 906.847656 C 309.589844 907.769531 310.449219 908.671875 311.328125 909.550781 C 312.210938 910.429688 313.109375 911.289062 314.03125 912.125 C 314.953125 912.960938 315.898438 913.773438 316.859375 914.5625 C 317.820312 915.351562 318.800781 916.117188 319.800781 916.859375 C 320.800781 917.601562 321.816406 918.316406 322.851562 919.011719 C 323.886719 919.703125 324.9375 920.367188 326.003906 921.007812 C 327.074219 921.648438 328.15625 922.261719 329.25 922.847656 C 330.347656 923.4375 331.460938 923.996094 332.585938 924.527344 C 333.710938 925.0625 334.847656 925.566406 335.996094 926.042969 C 337.144531 926.519531 338.308594 926.96875 339.476562 927.386719 C 340.648438 927.808594 341.832031 928.199219 343.023438 928.5625 C 344.210938 928.921875 345.410156 929.257812 346.617188 929.558594 C 347.824219 929.863281 349.039062 930.136719 350.257812 930.378906 C 351.480469 930.625 352.707031 930.835938 353.9375 931.019531 C 355.167969 931.203125 356.402344 931.359375 357.640625 931.480469 C 358.878906 931.605469 360.121094 931.699219 361.363281 931.757812 C 362.605469 931.820312 363.847656 931.855469 365.09375 931.855469 Z M 730.222656 931.855469 " fill-opacity="1" fill-rule="nonzero"/></g></svg>