<svg xmlns="http://www.w3.org/2000/svg" xmlns:xlink="http://www.w3.org/1999/xlink" width="512" zoomAndPan="magnify" viewBox="0 0 384 383.999986" height="512" preserveAspectRatio="xMidYMid meet" version="1.0"><defs><clipPath id="abfce8909a"><path d="M 66 17.367188 L 270.359375 17.367188 L 270.359375 237 L 66 237 Z M 66 17.367188 " clip-rule="nonzero"/></clipPath><clipPath id="ebde03e4ed"><path d="M 113.636719 147 L 318 147 L 318 366.625 L 113.636719 366.625 Z M 113.636719 147 " clip-rule="nonzero"/></clipPath></defs><rect x="-38.4" width="460.8" fill="#ffffff" y="-38.399999" height="460.799983" fill-opacity="1"/><rect x="-38.4" width="460.8" fill="#ffffff" y="-38.399999" height="460.799983" fill-opacity="1"/><g clip-path="url(#abfce8909a)"><path fill="#0f0efb" d="M 96.367188 16.96875 C 95.386719 16.96875 94.40625 17.015625 93.429688 17.113281 C 92.457031 17.210938 91.484375 17.355469 90.523438 17.546875 C 89.5625 17.742188 88.613281 17.980469 87.671875 18.265625 C 86.734375 18.550781 85.8125 18.882812 84.90625 19.257812 C 84 19.632812 83.113281 20.050781 82.25 20.515625 C 81.382812 20.976562 80.542969 21.480469 79.730469 22.027344 C 78.914062 22.574219 78.125 23.15625 77.367188 23.777344 C 76.609375 24.402344 75.882812 25.058594 75.191406 25.753906 C 74.496094 26.445312 73.839844 27.171875 73.214844 27.929688 C 72.59375 28.6875 72.007812 29.476562 71.464844 30.292969 C 70.917969 31.105469 70.414062 31.945312 69.953125 32.8125 C 69.488281 33.675781 69.070312 34.5625 68.695312 35.46875 C 68.320312 36.375 67.988281 37.296875 67.703125 38.234375 C 67.417969 39.175781 67.179688 40.125 66.984375 41.085938 C 66.792969 42.046875 66.648438 43.019531 66.550781 43.992188 C 66.453125 44.96875 66.40625 45.949219 66.40625 46.929688 L 66.40625 230.699219 C 66.40625 231.273438 66.484375 231.835938 66.648438 232.382812 C 66.808594 232.933594 67.042969 233.449219 67.351562 233.933594 C 67.660156 234.414062 68.03125 234.84375 68.464844 235.222656 C 68.898438 235.597656 69.375 235.90625 69.894531 236.144531 C 70.414062 236.382812 70.957031 236.546875 71.527344 236.628906 C 72.09375 236.710938 72.660156 236.714844 73.226562 236.632812 C 73.796875 236.554688 74.339844 236.398438 74.863281 236.160156 C 75.386719 235.925781 75.863281 235.621094 76.300781 235.25 L 123.246094 195 C 125.601562 192.988281 128.234375 191.441406 131.140625 190.367188 C 134.050781 189.292969 137.054688 188.753906 140.152344 188.75 L 240.1875 188.75 C 241.167969 188.75 242.148438 188.703125 243.121094 188.605469 C 244.097656 188.507812 245.066406 188.363281 246.03125 188.171875 C 246.992188 187.976562 247.941406 187.738281 248.878906 187.453125 C 249.820312 187.167969 250.742188 186.835938 251.648438 186.460938 C 252.554688 186.085938 253.4375 185.667969 254.304688 185.203125 C 255.167969 184.742188 256.007812 184.238281 256.824219 183.691406 C 257.640625 183.144531 258.425781 182.5625 259.183594 181.941406 C 259.945312 181.316406 260.667969 180.660156 261.363281 179.964844 C 262.058594 179.273438 262.714844 178.546875 263.335938 177.789062 C 263.960938 177.03125 264.542969 176.242188 265.089844 175.425781 C 265.632812 174.613281 266.136719 173.773438 266.601562 172.90625 C 267.0625 172.042969 267.484375 171.15625 267.859375 170.25 C 268.234375 169.34375 268.566406 168.421875 268.851562 167.484375 C 269.136719 166.542969 269.375 165.59375 269.566406 164.632812 C 269.761719 163.671875 269.90625 162.703125 270 161.726562 C 270.097656 160.75 270.148438 159.769531 270.148438 158.789062 L 270.148438 46.929688 C 270.148438 45.949219 270.097656 44.96875 270.003906 43.992188 C 269.90625 43.019531 269.761719 42.046875 269.566406 41.085938 C 269.375 40.125 269.136719 39.175781 268.851562 38.234375 C 268.566406 37.296875 268.234375 36.375 267.859375 35.46875 C 267.484375 34.5625 267.066406 33.675781 266.601562 32.8125 C 266.140625 31.945312 265.636719 31.105469 265.089844 30.292969 C 264.542969 29.476562 263.960938 28.6875 263.339844 27.929688 C 262.714844 27.171875 262.058594 26.445312 261.363281 25.753906 C 260.671875 25.058594 259.945312 24.402344 259.1875 23.777344 C 258.429688 23.15625 257.640625 22.574219 256.824219 22.027344 C 256.011719 21.480469 255.167969 20.976562 254.304688 20.515625 C 253.441406 20.050781 252.554688 19.632812 251.648438 19.257812 C 250.742188 18.882812 249.820312 18.550781 248.882812 18.265625 C 247.941406 17.980469 246.992188 17.742188 246.03125 17.546875 C 245.066406 17.355469 244.097656 17.210938 243.121094 17.113281 C 242.148438 17.015625 241.167969 16.96875 240.1875 16.96875 Z M 96.367188 16.96875 " fill-opacity="1" fill-rule="nonzero"/></g><g clip-path="url(#ebde03e4ed)"><path fill="#80b4f6" d="M 287.628906 367.023438 C 288.609375 367.023438 289.589844 366.976562 290.566406 366.878906 C 291.542969 366.78125 292.511719 366.636719 293.472656 366.445312 C 294.433594 366.25 295.382812 366.011719 296.324219 365.726562 C 297.261719 365.441406 298.183594 365.109375 299.089844 364.734375 C 299.996094 364.359375 300.882812 363.941406 301.746094 363.476562 C 302.613281 363.015625 303.453125 362.511719 304.269531 361.964844 C 305.082031 361.421875 305.871094 360.835938 306.628906 360.214844 C 307.386719 359.589844 308.113281 358.933594 308.804688 358.238281 C 309.5 357.546875 310.15625 356.820312 310.78125 356.0625 C 311.402344 355.304688 311.988281 354.515625 312.53125 353.699219 C 313.078125 352.886719 313.582031 352.046875 314.042969 351.179688 C 314.507812 350.316406 314.925781 349.429688 315.300781 348.523438 C 315.679688 347.617188 316.007812 346.695312 316.292969 345.757812 C 316.578125 344.816406 316.816406 343.867188 317.011719 342.90625 C 317.203125 341.945312 317.347656 340.972656 317.445312 340 C 317.542969 339.023438 317.589844 338.042969 317.589844 337.0625 L 317.589844 153.292969 C 317.589844 152.71875 317.511719 152.160156 317.351562 151.609375 C 317.1875 151.058594 316.953125 150.542969 316.644531 150.058594 C 316.335938 149.578125 315.964844 149.148438 315.53125 148.769531 C 315.097656 148.394531 314.621094 148.085938 314.101562 147.847656 C 313.582031 147.609375 313.039062 147.449219 312.46875 147.363281 C 311.902344 147.28125 311.335938 147.277344 310.769531 147.359375 C 310.199219 147.4375 309.65625 147.59375 309.132812 147.832031 C 308.609375 148.066406 308.132812 148.371094 307.699219 148.746094 L 260.75 188.992188 C 258.394531 191.003906 255.761719 192.550781 252.855469 193.625 C 249.945312 194.699219 246.945312 195.238281 243.84375 195.242188 L 143.808594 195.242188 C 142.828125 195.242188 141.851562 195.289062 140.875 195.386719 C 139.898438 195.484375 138.929688 195.628906 137.964844 195.820312 C 137.003906 196.015625 136.054688 196.253906 135.117188 196.539062 C 134.175781 196.824219 133.253906 197.15625 132.347656 197.53125 C 131.441406 197.90625 130.558594 198.324219 129.691406 198.789062 C 128.828125 199.25 127.988281 199.753906 127.171875 200.300781 C 126.355469 200.847656 125.570312 201.429688 124.8125 202.050781 C 124.054688 202.675781 123.328125 203.332031 122.632812 204.027344 C 121.941406 204.71875 121.28125 205.445312 120.660156 206.203125 C 120.035156 206.960938 119.453125 207.75 118.90625 208.566406 C 118.363281 209.378906 117.859375 210.21875 117.394531 211.085938 C 116.933594 211.949219 116.511719 212.835938 116.136719 213.742188 C 115.761719 214.648438 115.429688 215.570312 115.144531 216.507812 C 114.859375 217.449219 114.621094 218.398438 114.429688 219.359375 C 114.234375 220.320312 114.089844 221.289062 113.996094 222.265625 C 113.898438 223.242188 113.847656 224.222656 113.847656 225.203125 L 113.847656 337.0625 C 113.847656 338.042969 113.898438 339.023438 113.996094 340 C 114.089844 340.972656 114.234375 341.945312 114.429688 342.90625 C 114.621094 343.867188 114.859375 344.816406 115.144531 345.757812 C 115.429688 346.695312 115.761719 347.617188 116.136719 348.523438 C 116.511719 349.429688 116.933594 350.316406 117.394531 351.179688 C 117.859375 352.046875 118.363281 352.886719 118.90625 353.699219 C 119.453125 354.515625 120.035156 355.304688 120.660156 356.0625 C 121.28125 356.820312 121.9375 357.546875 122.632812 358.238281 C 123.324219 358.933594 124.050781 359.589844 124.808594 360.214844 C 125.570312 360.835938 126.355469 361.421875 127.171875 361.964844 C 127.988281 362.511719 128.828125 363.015625 129.691406 363.476562 C 130.558594 363.941406 131.441406 364.359375 132.347656 364.734375 C 133.253906 365.109375 134.175781 365.441406 135.117188 365.726562 C 136.054688 366.011719 137.003906 366.25 137.964844 366.445312 C 138.929688 366.636719 139.898438 366.78125 140.875 366.878906 C 141.851562 366.976562 142.828125 367.023438 143.808594 367.023438 Z M 287.628906 367.023438 " fill-opacity="1" fill-rule="nonzero"/></g></svg>